<svg xmlns="http://www.w3.org/2000/svg" width="34" height="34" fill="none" viewBox="0 0 34 34"><g clip-path="url(#clip0)"><path fill="#000" d="M33.6105 16.0599C33.6101 16.0595 33.6097 16.059 33.6093 16.0586L26.6695 9.15237C26.1497 8.635 25.3088 8.63692 24.7912 9.15689C24.2738 9.67678 24.2758 10.5177 24.7957 11.0351L29.455 15.6719H1.32812C0.594602 15.6719 0 16.2665 0 17C0 17.7335 0.594602 18.3281 1.32812 18.3281H29.455L24.7958 22.9649C24.2759 23.4823 24.2739 24.3232 24.7913 24.8431C25.3088 25.3631 26.1498 25.3649 26.6696 24.8476L33.6093 17.9414C33.6097 17.941 33.6101 17.9405 33.6105 17.9401C34.1307 17.4209 34.129 16.5773 33.6105 16.0599Z"/></g><defs><clipPath id="clip0"><rect width="34" height="34" fill="#fff"/></clipPath></defs></svg>